<mxfile host="app.diagrams.net" modified="2020-09-21T03:44:41.076Z" agent="5.0 (Windows NT 10.0; Win64; x64) AppleWebKit/537.36 (KHTML, like Gecko) Chrome/85.0.4183.102 Safari/537.36" etag="LJU77zD2tF0WXeG-tAWd" version="13.7.1" type="github">
  <diagram id="6a731a19-8d31-9384-78a2-239565b7b9f0" name="Page-1">
    <mxGraphModel dx="1422" dy="752" grid="1" gridSize="10" guides="1" tooltips="1" connect="1" arrows="1" fold="1" page="1" pageScale="1" pageWidth="1169" pageHeight="827" background="#ffffff" math="0" shadow="0">
      <root>
        <mxCell id="0" />
        <mxCell id="1" parent="0" />
        <mxCell id="TRFzm_XhI-DnYurFOpn--65" value="" style="edgeStyle=orthogonalEdgeStyle;rounded=0;orthogonalLoop=1;jettySize=auto;html=1;" edge="1" parent="1" source="TRFzm_XhI-DnYurFOpn--60">
          <mxGeometry relative="1" as="geometry">
            <mxPoint x="210" y="185" as="targetPoint" />
          </mxGeometry>
        </mxCell>
        <mxCell id="TRFzm_XhI-DnYurFOpn--60" value="Start" style="html=1;dashed=0;whitespace=wrap;shape=mxgraph.dfd.start" vertex="1" parent="1">
          <mxGeometry x="170" y="110" width="80" height="30" as="geometry" />
        </mxCell>
        <mxCell id="TRFzm_XhI-DnYurFOpn--70" value="End" style="html=1;dashed=0;whitespace=wrap;shape=mxgraph.dfd.start" vertex="1" parent="1">
          <mxGeometry x="170" y="650" width="80" height="30" as="geometry" />
        </mxCell>
        <mxCell id="TRFzm_XhI-DnYurFOpn--73" value="" style="edgeStyle=orthogonalEdgeStyle;rounded=0;orthogonalLoop=1;jettySize=auto;html=1;" edge="1" parent="1" source="TRFzm_XhI-DnYurFOpn--71" target="TRFzm_XhI-DnYurFOpn--70">
          <mxGeometry relative="1" as="geometry" />
        </mxCell>
        <mxCell id="TRFzm_XhI-DnYurFOpn--71" value="执行ansible role到相关主机" style="whiteSpace=wrap;html=1;dashed=0;" vertex="1" parent="1">
          <mxGeometry x="150" y="550" width="120" height="60" as="geometry" />
        </mxCell>
        <mxCell id="TRFzm_XhI-DnYurFOpn--79" value="" style="edgeStyle=orthogonalEdgeStyle;rounded=0;orthogonalLoop=1;jettySize=auto;html=1;" edge="1" parent="1" source="TRFzm_XhI-DnYurFOpn--75">
          <mxGeometry relative="1" as="geometry">
            <mxPoint x="210" y="310" as="targetPoint" />
          </mxGeometry>
        </mxCell>
        <mxCell id="TRFzm_XhI-DnYurFOpn--75" value="下载role至broker" style="whiteSpace=wrap;html=1;dashed=0;" vertex="1" parent="1">
          <mxGeometry x="150" y="180" width="120" height="60" as="geometry" />
        </mxCell>
        <mxCell id="TRFzm_XhI-DnYurFOpn--86" value="" style="edgeStyle=orthogonalEdgeStyle;rounded=0;orthogonalLoop=1;jettySize=auto;html=1;" edge="1" parent="1" source="TRFzm_XhI-DnYurFOpn--76" target="TRFzm_XhI-DnYurFOpn--85">
          <mxGeometry relative="1" as="geometry" />
        </mxCell>
        <mxCell id="TRFzm_XhI-DnYurFOpn--76" value="&lt;span&gt;根据传入参数构建ansible_template.yml&lt;/span&gt;" style="shape=parallelogram;perimeter=parallelogramPerimeter;whiteSpace=wrap;html=1;fixedSize=1;dashed=0;" vertex="1" parent="1">
          <mxGeometry x="150" y="310" width="120" height="60" as="geometry" />
        </mxCell>
        <mxCell id="TRFzm_XhI-DnYurFOpn--87" value="" style="edgeStyle=orthogonalEdgeStyle;rounded=0;orthogonalLoop=1;jettySize=auto;html=1;" edge="1" parent="1" source="TRFzm_XhI-DnYurFOpn--85" target="TRFzm_XhI-DnYurFOpn--71">
          <mxGeometry relative="1" as="geometry" />
        </mxCell>
        <mxCell id="TRFzm_XhI-DnYurFOpn--85" value="获取动态清单&lt;br&gt;dynamic inventory" style="whiteSpace=wrap;html=1;dashed=0;" vertex="1" parent="1">
          <mxGeometry x="150" y="430" width="120" height="60" as="geometry" />
        </mxCell>
      </root>
    </mxGraphModel>
  </diagram>
</mxfile>
